<?xml version="1.0" encoding="UTF-8" standalone="no"?>
<!DOCTYPE svg PUBLIC "-//W3C//DTD SVG 1.1//EN" "http://www.w3.org/Graphics/SVG/1.1/DTD/svg11.dtd">
<svg width="100%" height="100%" viewBox="0 0 40 40" version="1.1" xmlns="http://www.w3.org/2000/svg" xmlns:xlink="http://www.w3.org/1999/xlink" xml:space="preserve" xmlns:serif="http://www.serif.com/" style="fill-rule:evenodd;clip-rule:evenodd;stroke-linejoin:round;stroke-miterlimit:2;">
    <path d="M4,37L4,26L8,26L8,33L32,33L32,26L36,26L36,37L4,37ZM24,22L22,22L22,4L18,4L18,22L16,22L16,20L14,20L14,18L12,18L12,16L8,16L8,20L10,20L10,22L12,22L12,24L14,24L14,26L16,26L16,28L18,28L18,30L22,30L22,28L24,28L24,26L26,26L26,24L28,24L28,22L30,22L30,20L32,20L32,16L28,16L28,18L26,18L26,20L24,20L24,22Z" style="fill:white;"/>
</svg>
