<?xml version="1.0" encoding="UTF-8" standalone="no"?>
<!DOCTYPE svg PUBLIC "-//W3C//DTD SVG 1.1//EN" "http://www.w3.org/Graphics/SVG/1.1/DTD/svg11.dtd">
<svg width="100%" height="100%" viewBox="0 0 40 40" version="1.1" xmlns="http://www.w3.org/2000/svg" xmlns:xlink="http://www.w3.org/1999/xlink" xml:space="preserve" xmlns:serif="http://www.serif.com/" style="fill-rule:evenodd;clip-rule:evenodd;stroke-linejoin:round;stroke-miterlimit:2;">
    <g transform="matrix(-3.06162e-16,-1,-1,3.06162e-16,23.5,28)">
        <path d="M14,2L14,3L13,3L13,4L12,4L12,6L13,6L13,7L14,7L14,8L15,8L15,6L20,6L20,11L22,11L22,5L21,5L21,4L15,4L15,2L14,2Z" style="fill:white;"/>
    </g>
    <g transform="matrix(4.28626e-16,1,1,-4.28626e-16,2,2.5)">
        <path d="M12,2L12,3L11,3L11,4L10,4L10,6L11,6L11,7L12,7L12,8L13,8L13,6L18,6L18,9L20,9L20,5L19,5L19,4L13,4L13,2L12,2Z" style="fill:white;"/>
    </g>
    <g transform="matrix(1,0,0,1,1,1)">
        <path d="M8,4L8,3L4,3L4,4L3,4L3,8L4,8L4,9L8,9L8,8L9,8L9,4L8,4Z" style="fill:white;"/>
    </g>
    <path d="M13,18L13,36L37,36L37,18L13,18ZM15,34L35,34L35,30L33,30L33,28L31,28L31,26L27,26L27,28L25,28L25,30L23,30L23,28L19,28L19,30L17,30L17,32L15,32L15,34ZM22,22L22,21L20,21L20,22L19,22L19,24L20,24L20,25L22,25L22,24L23,24L23,22L22,22Z" style="fill:white;"/>
</svg>
