<?xml version="1.0" encoding="UTF-8" standalone="no"?>
<!DOCTYPE svg PUBLIC "-//W3C//DTD SVG 1.1//EN" "http://www.w3.org/Graphics/SVG/1.1/DTD/svg11.dtd">
<svg width="100%" height="100%" viewBox="0 0 40 40" version="1.1" xmlns="http://www.w3.org/2000/svg" xmlns:xlink="http://www.w3.org/1999/xlink" xml:space="preserve" xmlns:serif="http://www.serif.com/" style="fill-rule:evenodd;clip-rule:evenodd;stroke-linejoin:round;stroke-miterlimit:2;">
    <rect id="Artboard1" x="0" y="0" width="40" height="40" style="fill:none;"/>
    <g id="Artboard11" serif:id="Artboard1">
        <path d="M11,21L6,21L6,16L8,16L8,19L11,19L11,21ZM24,5L21,5L21,3L26,3L26,8L24,8L24,5ZM6,8L6,3L11,3L11,5L8,5L8,8L6,8ZM15,13L13,13L13,11L15,11L15,9L17,9L17,11L19,11L19,13L17,13L17,15L15,15L15,13ZM24,22L24,31L13,31L13,16L33,16L33,24L30,24L30,22L24,22ZM28,35L28,36L26,36L26,24L28,24L28,26L30,26L30,28L32,28L32,30L34,30L34,32L32,32L32,34L33,34L33,37L31,37L31,36L30,36L30,35L28,35ZM8,10L8,14L6,14L6,10L8,10ZM26,10L26,14L24,14L24,10L26,10ZM19,3L19,5L13,5L13,3L19,3Z" style="fill:#3b7362;"/>
    </g>
</svg>
